<?xml version="1.0" encoding="UTF-8" standalone="no"?>
<!-- Created with Inkscape (http://www.inkscape.org/) -->

<svg
   xmlns:dc="http://purl.org/dc/elements/1.1/"
   xmlns:cc="http://creativecommons.org/ns#"
   xmlns:rdf="http://www.w3.org/1999/02/22-rdf-syntax-ns#"
   xmlns:svg="http://www.w3.org/2000/svg"
   xmlns="http://www.w3.org/2000/svg"
   xmlns:sodipodi="http://sodipodi.sourceforge.net/DTD/sodipodi-0.dtd"
   xmlns:inkscape="http://www.inkscape.org/namespaces/inkscape"
   width="106.31264mm"
   height="13.401893mm"
   viewBox="0 0 106.31264 13.401893"
   version="1.1"
   id="svg4725"
   sodipodi:docname="logo_afp.svg"
   inkscape:version="0.92.3 (2405546, 2018-03-11)">
  <defs
     id="defs4719" />
  <sodipodi:namedview
     id="base"
     pagecolor="#ffffff"
     bordercolor="#666666"
     borderopacity="1.0"
     inkscape:pageopacity="0.0"
     inkscape:pageshadow="2"
     inkscape:zoom="1.4"
     inkscape:cx="-460.30548"
     inkscape:cy="-423.24503"
     inkscape:document-units="mm"
     inkscape:current-layer="layer1"
     showgrid="false"
     inkscape:window-width="3840"
     inkscape:window-height="2038"
     inkscape:window-x="0"
     inkscape:window-y="50"
     inkscape:window-maximized="1" />
  <metadata
     id="metadata4722">
    <rdf:RDF>
      <cc:Work
         rdf:about="">
        <dc:format>image/svg+xml</dc:format>
        <dc:type
           rdf:resource="http://purl.org/dc/dcmitype/StillImage" />
      </cc:Work>
    </rdf:RDF>
  </metadata>
  <g
     inkscape:label="Layer 1"
     inkscape:groupmode="layer"
     id="layer1"
     transform="translate(-9.5877219,-8.3288127)">
    <g
       aria-label="Author First Pass"
       transform="matrix(0.35189316,0,0,0.31484613,9.7382937,8.9586172)"
       style="font-style:normal;font-weight:normal;font-size:40px;line-height:1.25;font-family:sans-serif;letter-spacing:0px;word-spacing:0px;fill:#85a6ba;fill-opacity:1;stroke:none"
       id="flowRoot831">
      <path
         d="M 29.16,35.829766 16.44,6.2697656 H 13.12 L 0.44,35.829766 h 3.12 l 4.32,-9.96 h 13.76 l 4.28,9.96 z m -8.68,-12.64 H 9 L 14.8,9.6297656 Z"
         style="font-style:normal;font-variant:normal;font-weight:normal;font-stretch:normal;font-size:40px;font-family:'TeX Gyre Adventor';-inkscape-font-specification:'TeX Gyre Adventor, Normal';font-variant-ligatures:normal;font-variant-caps:normal;font-variant-numeric:normal;font-feature-settings:normal;text-align:start;writing-mode:lr-tb;text-anchor:start;fill:#85a6ba;fill-opacity:1"
         id="path839"
         inkscape:connector-curvature="0" />
      <path
         d="m 50.784375,35.829766 v -21.88 h -2.96 v 11.24 c 0,5.96 -2.8,8.44 -6.8,8.44 -4.24,0 -6.56,-2.32 -6.56,-7.88 v -11.8 h -2.96 v 11.8 c 0,7.64 3.72,10.6 9.28,10.6 3.4,0 5.56,-1.2 7.04,-3.92 v 3.4 z"
         style="font-style:normal;font-variant:normal;font-weight:normal;font-stretch:normal;font-size:40px;font-family:'TeX Gyre Adventor';-inkscape-font-specification:'TeX Gyre Adventor, Normal';font-variant-ligatures:normal;font-variant-caps:normal;font-variant-numeric:normal;font-feature-settings:normal;text-align:start;writing-mode:lr-tb;text-anchor:start;fill:#85a6ba;fill-opacity:1"
         id="path841"
         inkscape:connector-curvature="0" />
      <path
         d="m 66.36125,16.629766 v -2.68 h -4.92 V 6.2697656 h -2.96 v 7.6800004 h -4.72 v 2.68 h 4.72 v 19.2 h 2.96 v -19.2 z"
         style="font-style:normal;font-variant:normal;font-weight:normal;font-stretch:normal;font-size:40px;font-family:'TeX Gyre Adventor';-inkscape-font-specification:'TeX Gyre Adventor, Normal';font-variant-ligatures:normal;font-variant-caps:normal;font-variant-numeric:normal;font-feature-settings:normal;text-align:start;writing-mode:lr-tb;text-anchor:start;fill:#85a6ba;fill-opacity:1"
         id="path843"
         inkscape:connector-curvature="0" />
      <path
         d="m 88.755,35.829766 v -11.76 c 0,-7.32 -3.76,-10.64 -9.44,-10.64 -3,0 -5.48,1.2 -6.96,3.36 V 6.2697656 h -2.96 V 35.829766 h 2.96 v -12 c 0,-5.36 2.88,-7.68 6.68,-7.68 4,0 6.76,2.48 6.76,7.92 v 11.76 z"
         style="font-style:normal;font-variant:normal;font-weight:normal;font-stretch:normal;font-size:40px;font-family:'TeX Gyre Adventor';-inkscape-font-specification:'TeX Gyre Adventor, Normal';font-variant-ligatures:normal;font-variant-caps:normal;font-variant-numeric:normal;font-feature-settings:normal;text-align:start;writing-mode:lr-tb;text-anchor:start;fill:#85a6ba;fill-opacity:1"
         id="path845"
         inkscape:connector-curvature="0" />
      <path
         d="m 115.77,24.949766 c 0,-6.68 -4.8,-11.52 -11.36,-11.52 -6.48,0 -11.48,4.92 -11.48,11.32 0,6.72 4.92,11.6 11.72,11.6 6.4,0 11.12,-4.84 11.12,-11.4 z m -3,0.04 c 0,5 -3.44,8.64 -8.2,8.64 -5.04,0 -8.64,-3.68 -8.64,-8.8 0,-4.96 3.64,-8.68 8.48,-8.68 4.8,0 8.36,3.76 8.36,8.84 z"
         style="font-style:normal;font-variant:normal;font-weight:normal;font-stretch:normal;font-size:40px;font-family:'TeX Gyre Adventor';-inkscape-font-specification:'TeX Gyre Adventor, Normal';font-variant-ligatures:normal;font-variant-caps:normal;font-variant-numeric:normal;font-feature-settings:normal;text-align:start;writing-mode:lr-tb;text-anchor:start;fill:#85a6ba;fill-opacity:1"
         id="path847"
         inkscape:connector-curvature="0" />
      <path
         d="m 129.10187,16.349766 v -2.92 c -3.16,0.16 -5.03999,1.24 -6.19999,3.64 v -3.12 h -2.96001 v 21.88 h 2.96001 v -12.76 c 0,-4.08 2.08,-6.32 6.19999,-6.72 z"
         style="font-style:normal;font-variant:normal;font-weight:normal;font-stretch:normal;font-size:40px;font-family:'TeX Gyre Adventor';-inkscape-font-specification:'TeX Gyre Adventor, Normal';font-variant-ligatures:normal;font-variant-caps:normal;font-variant-numeric:normal;font-feature-settings:normal;text-align:start;writing-mode:lr-tb;text-anchor:start;fill:#85a6ba;fill-opacity:1"
         id="path849"
         inkscape:connector-curvature="0" />
      <path
         d="m 158.58687,8.9497656 v -2.68 h -15 V 35.829766 h 2.96 v -13.52 h 11.6 v -2.68 h -11.6 V 8.9497656 Z"
         style="font-style:normal;font-variant:normal;font-weight:normal;font-stretch:normal;font-size:40px;font-family:'TeX Gyre Adventor';-inkscape-font-specification:'TeX Gyre Adventor, Normal';font-variant-ligatures:normal;font-variant-caps:normal;font-variant-numeric:normal;font-feature-settings:normal;text-align:start;writing-mode:lr-tb;text-anchor:start;fill:#85a6ba;fill-opacity:1"
         id="path851"
         inkscape:connector-curvature="0" />
      <path
         d="m 165.40187,35.829766 v -21.88 h -2.96 v 21.88 z m 0,-24.28 V 6.5097656 h -2.96 v 5.0400004 z"
         style="font-style:normal;font-variant:normal;font-weight:normal;font-stretch:normal;font-size:40px;font-family:'TeX Gyre Adventor';-inkscape-font-specification:'TeX Gyre Adventor, Normal';font-variant-ligatures:normal;font-variant-caps:normal;font-variant-numeric:normal;font-feature-settings:normal;text-align:start;writing-mode:lr-tb;text-anchor:start;fill:#85a6ba;fill-opacity:1"
         id="path853"
         inkscape:connector-curvature="0" />
      <path
         d="m 179.57062,16.349766 v -2.92 c -3.16,0.16 -5.04,1.24 -6.2,3.64 v -3.12 h -2.96 v 21.88 h 2.96 v -12.76 c 0,-4.08 2.08,-6.32 6.2,-6.72 z"
         style="font-style:normal;font-variant:normal;font-weight:normal;font-stretch:normal;font-size:40px;font-family:'TeX Gyre Adventor';-inkscape-font-specification:'TeX Gyre Adventor, Normal';font-variant-ligatures:normal;font-variant-caps:normal;font-variant-numeric:normal;font-feature-settings:normal;text-align:start;writing-mode:lr-tb;text-anchor:start;fill:#85a6ba;fill-opacity:1"
         id="path855"
         inkscape:connector-curvature="0" />
      <path
         d="m 194.7525,29.549766 c 0,-2.68 -1.24,-4.52 -3.8,-5.6 -3.32,-1.36 -3.48,-1.44 -4.12,-1.76 -1.36,-0.68 -2,-1.6 -2,-2.88 0,-1.76 1.4,-3.16 3.16,-3.16 1.92,0 3.2,1.12 3.2,3.2 h 3 c 0,-3.52 -2.64,-5.92 -6.16,-5.92 -3.56,0 -6.2,2.6 -6.2,6.16 0,1.56 0.56,2.92 1.64,3.92 0.88,0.84 0.96,0.88 4.04,2.12 3.16,1.28 4.24,2 4.24,4.2 0,2.2 -1.56,3.8 -3.68,3.8 -2.44,0 -4.12,-1.56 -4.12,-4.24 h -2.92 c 0,4.24 2.84,6.96 7.04,6.96 3.92,0 6.68,-2.8 6.68,-6.8 z"
         style="font-style:normal;font-variant:normal;font-weight:normal;font-stretch:normal;font-size:40px;font-family:'TeX Gyre Adventor';-inkscape-font-specification:'TeX Gyre Adventor, Normal';font-variant-ligatures:normal;font-variant-caps:normal;font-variant-numeric:normal;font-feature-settings:normal;text-align:start;writing-mode:lr-tb;text-anchor:start;fill:#85a6ba;fill-opacity:1"
         id="path857"
         inkscape:connector-curvature="0" />
      <path
         d="m 209.33,16.629766 v -2.68 h -4.92 V 6.2697656 h -2.96 v 7.6800004 h -4.72 v 2.68 h 4.72 v 19.2 h 2.96 v -19.2 z"
         style="font-style:normal;font-variant:normal;font-weight:normal;font-stretch:normal;font-size:40px;font-family:'TeX Gyre Adventor';-inkscape-font-specification:'TeX Gyre Adventor, Normal';font-variant-ligatures:normal;font-variant-caps:normal;font-variant-numeric:normal;font-feature-settings:normal;text-align:start;writing-mode:lr-tb;text-anchor:start;fill:#85a6ba;fill-opacity:1"
         id="path859"
         inkscape:connector-curvature="0" />
      <path
         d="m 243.5375,15.229766 c 0,-6.2000004 -3.28,-8.9600004 -11.4,-8.9600004 h -8.16 V 35.829766 h 2.96 v -11.96 h 5.68 c 8.04,0 10.92,-3.04 10.92,-8.64 z m -3,0 c 0,4.28 -2.24,5.96 -8.12,5.96 h -5.48 V 8.9497656 h 4.2 c 5.64,0 9.4,0.28 9.4,6.2800004 z"
         style="font-style:normal;font-variant:normal;font-weight:normal;font-stretch:normal;font-size:40px;font-family:'TeX Gyre Adventor';-inkscape-font-specification:'TeX Gyre Adventor, Normal';font-variant-ligatures:normal;font-variant-caps:normal;font-variant-numeric:normal;font-feature-settings:normal;text-align:start;writing-mode:lr-tb;text-anchor:start;fill:#85a6ba;fill-opacity:1"
         id="path861"
         inkscape:connector-curvature="0" />
      <path
         d="m 268.78437,35.829766 v -21.88 h -2.95999 v 3.88 c -2.16001,-3.04 -4.84001,-4.4 -8.64001,-4.4 -6.56,0 -11.52,4.96 -11.52,11.52 0,6.52 5,11.4 11.72,11.4 3.72,0 6.12,-1.24 8.44001,-4.36 v 3.84 z m -2.95999,-11.04 c 0,4.96 -3.68,8.84 -8.40001,8.84 -4.96,0 -8.76,-3.88 -8.76,-8.88 0,-4.76 3.84,-8.6 8.6,-8.6 4.8,0 8.56001,3.76 8.56001,8.64 z"
         style="font-style:normal;font-variant:normal;font-weight:normal;font-stretch:normal;font-size:40px;font-family:'TeX Gyre Adventor';-inkscape-font-specification:'TeX Gyre Adventor, Normal';font-variant-ligatures:normal;font-variant-caps:normal;font-variant-numeric:normal;font-feature-settings:normal;text-align:start;writing-mode:lr-tb;text-anchor:start;fill:#85a6ba;fill-opacity:1"
         id="path863"
         inkscape:connector-curvature="0" />
      <path
         d="m 285.76812,29.549766 c 0,-2.68 -1.24,-4.52 -3.8,-5.6 -3.32,-1.36 -3.47999,-1.44 -4.12,-1.76 -1.35999,-0.68 -2,-1.6 -2,-2.88 0,-1.76 1.40001,-3.16 3.16,-3.16 1.92001,0 3.2,1.12 3.2,3.2 h 3 c 0,-3.52 -2.64,-5.92 -6.15999,-5.92 -3.56,0 -6.20001,2.6 -6.20001,6.16 0,1.56 0.56,2.92 1.64001,3.92 0.88,0.84 0.95999,0.88 4.03999,2.12 3.16001,1.28 4.24,2 4.24,4.2 0,2.2 -1.56,3.8 -3.68,3.8 -2.44,0 -4.12,-1.56 -4.12,-4.24 h -2.91999 c 0,4.24 2.83999,6.96 7.03999,6.96 3.92,0 6.68,-2.8 6.68,-6.8 z"
         style="font-style:normal;font-variant:normal;font-weight:normal;font-stretch:normal;font-size:40px;font-family:'TeX Gyre Adventor';-inkscape-font-specification:'TeX Gyre Adventor, Normal';font-variant-ligatures:normal;font-variant-caps:normal;font-variant-numeric:normal;font-feature-settings:normal;text-align:start;writing-mode:lr-tb;text-anchor:start;fill:#85a6ba;fill-opacity:1"
         id="path865"
         inkscape:connector-curvature="0" />
      <path
         d="m 301.315,29.549766 c 0,-2.68 -1.24,-4.52 -3.8,-5.6 -3.32,-1.36 -3.48,-1.44 -4.12,-1.76 -1.36,-0.68 -2,-1.6 -2,-2.88 0,-1.76 1.4,-3.16 3.16,-3.16 1.92,0 3.2,1.12 3.2,3.2 h 3 c 0,-3.52 -2.64,-5.92 -6.16,-5.92 -3.56,0 -6.2,2.6 -6.2,6.16 0,1.56 0.56,2.92 1.64,3.92 0.88,0.84 0.96,0.88 4.04,2.12 3.16,1.28 4.24,2 4.24,4.2 0,2.2 -1.56,3.8 -3.68,3.8 -2.44,0 -4.12,-1.56 -4.12,-4.24 h -2.92 c 0,4.24 2.84,6.96 7.04,6.96 3.92,0 6.68,-2.8 6.68,-6.8 z"
         style="font-style:normal;font-variant:normal;font-weight:normal;font-stretch:normal;font-size:40px;font-family:'TeX Gyre Adventor';-inkscape-font-specification:'TeX Gyre Adventor, Normal';font-variant-ligatures:normal;font-variant-caps:normal;font-variant-numeric:normal;font-feature-settings:normal;text-align:start;writing-mode:lr-tb;text-anchor:start;fill:#85a6ba;fill-opacity:1"
         id="path867"
         inkscape:connector-curvature="0" />
    </g>
  </g>
</svg>
