<?xml version="1.0" encoding="UTF-8"?><svg id="Layer_1" xmlns="http://www.w3.org/2000/svg" viewBox="0 0 1311.83 1451.38"><defs><style>.cls-1,.cls-2,.cls-3,.cls-4,.cls-5,.cls-6{stroke:#231f20;stroke-linecap:round;}.cls-1,.cls-2,.cls-4,.cls-5,.cls-6{stroke-miterlimit:10;}.cls-1,.cls-2,.cls-5,.cls-6{stroke-width:22.73px;}.cls-1,.cls-3,.cls-4{fill:none;}.cls-2{fill:#00adee;}.cls-3{stroke-linejoin:round;}.cls-3,.cls-4{stroke-width:31.83px;}.cls-5{fill:#211e1f;}.cls-6,.cls-7{fill:#231f20;}</style></defs><path class="cls-3" d="M207.2,1435.47c59.64-62.5,107.74-158.7,77.13-246.15-13.12-39.35-39.35-69.96-56.84-109.32C122.54,900.72,.1,721.44,17.59,507.19c8.75-87.45,30.61-166.16,78.71-244.87C214.36,74.29,432.99,4.33,638.51,17.45c0,0,204.36,16.51,341.07,139.92,14.5,13.09,28,27.15,28,27.15,0,0,5.81,6.05,11.35,12.2,77.1,85.46,100.57,166.16,100.57,166.16,21.86,69.96,8.75,139.93,26.24,209.89,21.86,100.57,91.83,174.91,148.67,253.61,8.75,39.35-21.86,65.59-56.84,78.71-13.12,4.37-34.98,13.12-34.98,34.98,4.37,17.49,13.12,30.61,21.86,48.1,21.86,39.35-30.61,39.35-48.1,61.22v13.12c21.86,17.49,43.73,39.35,34.98,65.59-17.49,30.61-13.12,65.59-17.49,100.57-4.37,39.35-13.12,83.08-52.47,96.2-74.33,17.49-148.67-4.37-223-13.12-11.5,1.69-22.99,3.37-34.48,5.06"/><path class="cls-7" d="M893.2,1004.73c0,14.25,.12,23.48-.02,32.69-.44,28.91-9.07,38.13-38.03,38.26-72.15,.33-144.3,.11-216.45,.12-59.6,0-119.2,.12-178.81-.04-35.01-.09-43.01-8.13-43.03-42.96-.06-172.48-.04-344.97-.02-517.45,0-39.54,6.98-46.59,46.17-47.23,6.14-.1,12.28-.69,18.09-1.03,8.65-36.49,10.34-37.83,47.15-37.84,95.68-.01,191.36-.49,287.02,.63,11.61,.14,25.68,6.15,34.24,14.12,33.26,30.97,65.39,63.25,96.46,96.43,7.52,8.03,13.18,21.31,13.28,32.23,.96,108.97,1,217.96,.15,326.93-.14,17.63,4.9,29.08,19.19,39.28,21.66,15.46,42.14,32.65,62.56,49.78,23.83,19.99,23.57,37.11,.08,66.54-20.59,25.79-37.97,29.12-61.87,10.91-20.58-15.68-40.37-32.38-60.97-48.03-6.26-4.76-14.03-7.53-25.19-13.32Zm-16.23-18.02c3.43-27.8-21.92-32.36-34.39-46.54-9.34-10.63-17.68-9.85-30.15-2.33-65.14,39.26-148.13,25.88-196.75-30.28-49.68-57.39-51.66-140.14-4.76-199.08,47.13-59.23,128.28-76.34,195-41.12,66.67,35.19,98.03,113.43,73.37,186.82-4.69,13.97-2.51,21.65,8.95,29.25,8.46,5.6,15.34,13.76,24.11,18.66,7.53,4.2,16.74,5.39,25.93,8.12v-341.51c-25.63,1.48-49.04,2.73-72.43,4.21-33.2,2.1-46.16-9.73-46.38-43.04-.18-27.08-.04-54.17-.04-81.21-6.65-.86-9.69-1.6-12.73-1.6-94.09-.09-188.17,.32-282.25-.47-19.83-.17-20.83,10.08-20.81,25.13,.26,163.82,.45,327.64-.22,491.46-.08,19.7,6.26,25.37,25.58,25.23,109.76-.77,219.53-.35,329.3-.43,6.05,0,12.09-.8,18.68-1.27ZM484.36,490.79c-45.97-7.56-47.28-6.51-47.28,35.1,0,167.73,.41,335.46-.5,503.18-.12,22.17,6.79,27.88,28.1,27.74,127-.84,254.02-1,381.01,.1,23.68,.21,31.12-8.22,28.06-29.9-.84-5.94-1.46-11.91-2.34-19.13-10.3,0-18.86,0-27.43,0-104.27,0-208.54,.02-312.81,0-40.4-.01-46.79-6.27-46.8-45.76-.03-74.46,0-148.92,0-223.38,0-82.24,0-164.49,0-247.95Zm383.79,314.36c.74-74.98-60-135.92-135.76-136.19-73.44-.26-134.74,60.31-135.89,134.27-1.16,74,61.03,137.48,134.99,137.8,74.8,.33,135.91-60.44,136.66-135.89Zm28.96,169.72c33.27,26.63,65.28,53.63,98.84,78.53,16.57,12.29,24.63-4.48,33.38-14.9,8.55-10.18,15.8-21.07,2.11-32.2-31.86-25.9-64.13-51.28-97.1-77.57-12.94,16.03-24.15,29.92-37.24,46.14Zm21.35-425.08c-26.63-26.57-52.96-52.86-79.45-79.29,0,21.08-1.09,44.34,.77,67.35,.46,5.69,10.38,14.93,16.16,15.09,21.5,.59,43.09-1.93,62.52-3.15Zm-9.05,375.9c-15.52-12.4-29.88-23.87-44.91-35.88-7.62,9.52-13.78,17.23-20.68,25.84,15.57,12.64,29.35,23.82,44.65,36.24,7.33-9.17,13.51-16.91,20.94-26.21Z"/><path class="cls-7" d="M671.45,561.43c-30.49,0-60.99,.5-91.46-.42-6.38-.19-12.59-5.64-18.88-8.67,5.84-3.6,11.64-10.27,17.52-10.34,61.75-.76,123.52-.75,185.27,0,5.87,.07,11.66,6.61,17.49,10.15-6.16,3.09-12.24,8.67-18.49,8.86-30.46,.93-60.97,.42-91.45,.42Z"/><path class="cls-7" d="M671.36,508.03c-31.32,0-62.64,.46-93.93-.43-5.46-.15-10.76-5.97-16.14-9.17,5.39-3.21,10.74-9.16,16.16-9.21,62.62-.65,125.26-.65,187.88,0,5.33,.06,10.59,6,15.89,9.22-5.31,3.2-10.54,9.01-15.93,9.16-31.29,.88-62.62,.43-93.93,.43Z"/><path class="cls-7" d="M673.8,594.89c30.52,0,61.06-.47,91.55,.45,5.35,.16,10.52,6.15,15.77,9.45-5.26,3.2-10.49,9.12-15.79,9.17-62.6,.65-125.22,.66-187.82,.02-5.38-.06-10.7-5.96-16.04-9.15,5.36-3.32,10.63-9.35,16.08-9.5,32.06-.91,64.16-.45,96.25-.44Z"/><path class="cls-7" d="M833.08,804.86c-.09,56.41-45.28,101.14-101.73,100.71-54.45-.42-100.05-46.42-99.92-100.8,.14-54.62,45.4-100.19,100.04-100.69,56.42-.52,101.7,44.38,101.61,100.78Zm-100.08-81.02c-43.98-.44-80.94,35.7-81.88,80.05-.91,43.35,36.51,81.87,79.89,82.2,45.8,.35,82.68-36,82.63-81.46-.05-44.61-35.71-80.34-80.64-80.79Z"/><line class="cls-6" x1="737.88" y1="429.14" x2="737.88" y2="231.67"/><circle class="cls-1" cx="737.88" cy="196.16" r="30.48"/><line class="cls-6" x1="650.71" y1="428.81" x2="650.71" y2="315.25"/><circle class="cls-1" cx="645.16" cy="278.93" r="30.48"/><line class="cls-6" x1="416.82" y1="641.4" x2="296.97" y2="641.4"/><circle class="cls-1" cx="266.49" cy="640.26" r="30.48"/><line class="cls-5" x1="415.86" y1="551.82" x2="247.57" y2="551.82"/><circle class="cls-1" cx="217.09" cy="545.08" r="30.48"/><line class="cls-6" x1="423.87" y1="712.09" x2="333.72" y2="802.24"/><line class="cls-6" x1="333.72" y1="807.06" x2="333.72" y2="902.93"/><circle class="cls-1" cx="333.72" cy="941.24" r="30.48"/><line class="cls-6" x1="952.5" y1="704.07" x2="1008.6" y2="636.14"/><line class="cls-6" x1="1008.6" y1="629.05" x2="1008.6" y2="501.96"/><circle class="cls-1" cx="1008.6" cy="471.54" r="30.48"/><line class="cls-2" x1="559.33" y1="431.42" x2="559.33" y2="363.3"/><line class="cls-6" x1="556.97" y1="358.97" x2="466.59" y2="268.59"/><circle class="cls-1" cx="445.03" cy="247.03" r="30.48"/><line class="cls-1" x1="704.73" y1="820.95" x2="723.91" y2="840.13"/><line class="cls-1" x1="726.82" y1="842.57" x2="768.16" y2="786.85"/><path class="cls-4" d="M815.57,1413.23c9.04-38.25,29.28-77.95,66.45-95.36"/></svg>