<?xml version="1.0" encoding="UTF-8" standalone="no"?>
<!-- Generator: Adobe Illustrator 16.0.0, SVG Export Plug-In . SVG Version: 6.00 Build 0)  -->

<svg
   xmlns:dc="http://purl.org/dc/elements/1.1/"
   xmlns:cc="http://creativecommons.org/ns#"
   xmlns:rdf="http://www.w3.org/1999/02/22-rdf-syntax-ns#"
   xmlns:svg="http://www.w3.org/2000/svg"
   xmlns="http://www.w3.org/2000/svg"
   xmlns:sodipodi="http://sodipodi.sourceforge.net/DTD/sodipodi-0.dtd"
   xmlns:inkscape="http://www.inkscape.org/namespaces/inkscape"
   version="1.1"
   id="Layer_1"
   x="0px"
   y="0px"
   width="468.65103"
   height="72.189827"
   viewBox="0 0 468.65105 72.189827"
   enable-background="new 0 0 543.6 99.5"
   xml:space="preserve"
   sodipodi:docname="logo_wormbase_gradient.svg"
   inkscape:version="0.92.3 (2405546, 2018-03-11)"><metadata
   id="metadata36"><rdf:RDF><cc:Work
       rdf:about=""><dc:format>image/svg+xml</dc:format><dc:type
         rdf:resource="http://purl.org/dc/dcmitype/StillImage" /><dc:title></dc:title></cc:Work></rdf:RDF></metadata><defs
   id="defs34" /><sodipodi:namedview
   pagecolor="#ffffff"
   bordercolor="#666666"
   borderopacity="1"
   objecttolerance="10"
   gridtolerance="10"
   guidetolerance="10"
   inkscape:pageopacity="0"
   inkscape:pageshadow="2"
   inkscape:window-width="912"
   inkscape:window-height="525"
   id="namedview32"
   showgrid="false"
   fit-margin-top="0"
   fit-margin-left="0"
   fit-margin-right="0"
   fit-margin-bottom="0"
   inkscape:zoom="1.3226638"
   inkscape:cx="271.79999"
   inkscape:cy="49.657625"
   inkscape:window-x="1417"
   inkscape:window-y="917"
   inkscape:window-maximized="0"
   inkscape:current-layer="Layer_1" />
<g
   id="g29"
   transform="scale(0.86228343,0.72620007)">
	<g
   id="g4">
		<path
   d="m 518.1,75.4 c -16.9,0 -29.3,-11.8 -29.3,-29 v -0.2 c 0,-16 11.4,-29.2 27.7,-29.2 18.7,0 27,15.4 27,27 0,4.6 -3.2,7.6 -7.4,7.6 h -31.5 c 1.6,7.2 6.6,11 13.7,11 4.4,0 8.1,-1.4 11.3,-3.8 1.2,-0.8 2.2,-1.3 3.9,-1.3 3.6,0 6.2,2.7 6.2,6.3 0,2.1 -0.9,3.7 -2.1,4.7 -4.9,4.2 -11.3,6.9 -19.5,6.9 z m 10.3,-33.7 c -0.9,-7.1 -5.1,-11.9 -11.8,-11.9 -6.6,0 -10.9,4.7 -12.1,11.9 z"
   id="path2"
   inkscape:connector-curvature="0"
   style="fill:#85a6ba" />
	</g>
	<path
   d="M 0.6,11.1 C 0.3,10.2 0,9 0,8.1 0,3.6 3.8,0.2 8.3,0.2 c 3.8,0 6.8,2.4 7.8,5.8 L 30.6,50.9 45.3,6.4 C 46.6,2.6 49.4,0 53.5,0 h 1.3 c 4.1,0 6.9,2.5 8.2,6.4 L 77.7,50.9 92.1,6 c 1,-3.1 3.8,-5.8 7.7,-5.8 4.4,0 8,3.3 8,7.7 0,0.9 -0.3,2.2 -0.6,3.1 L 86.7,68.7 c -1.5,4.1 -4.5,6.6 -8.4,6.6 h -1.7 c -3.9,0 -6.8,-2.4 -8.3,-6.6 l -14.4,-42 -14.4,42 c -1.5,4.2 -4.4,6.6 -8.3,6.6 h -1.7 c -3.9,0 -6.9,-2.5 -8.4,-6.6 z"
   id="path6"
   inkscape:connector-curvature="0"
   style="fill:#c2d4e9" />
	<path
   d="m 223,25.3 c 0,-4.4 3.6,-8 8,-8 4.4,0 8,3.6 8,8 V 26 c 3.7,-4.7 8.5,-9 16.5,-9 7.3,0 12.9,3.2 15.8,8.9 4.9,-5.8 10.8,-8.9 18.4,-8.9 11.8,0 18.9,7.1 18.9,20.6 v 29.2 c 0,4.4 -3.6,8 -8,8 -4.4,0 -8,-3.6 -8,-8 v -24 c 0,-7.5 -3.3,-11.4 -9.3,-11.4 -6,0 -9.6,3.9 -9.6,11.4 v 24 c 0,4.4 -3.6,8 -8,8 -4.4,0 -8,-3.6 -8,-8 v -24 c 0,-7.5 -3.3,-11.4 -9.3,-11.4 -6,0 -9.6,3.9 -9.6,11.4 v 24 c 0,4.4 -3.6,8 -8,8 -4.4,0 -8,-3.6 -8,-8 V 25.3 Z"
   id="path8"
   inkscape:connector-curvature="0"
   style="fill:#c2d4e9" />
	<path
   d="m 318.8,8.9 c 0,-4.5 3.6,-8.1 8.1,-8.1 h 26 c 8.4,0 15,2.3 19.2,6.5 3.3,3.3 5,7.4 5,12.5 V 20 c 0,8.3 -4.4,12.9 -9.6,15.8 8.5,3.2 13.7,8.2 13.7,18 V 54 c 0,13.4 -10.9,20.1 -27.4,20.1 H 327 c -4.5,0 -8.1,-3.6 -8.1,-8.1 V 8.9 Z m 30.6,21.6 c 7.1,0 11.6,-2.3 11.6,-7.7 v -0.2 c 0,-4.8 -3.8,-7.5 -10.6,-7.5 h -15.9 v 15.5 h 14.9 z m 4.3,29.5 c 7.1,0 11.4,-2.5 11.4,-8 v -0.2 c 0,-4.9 -3.7,-8 -11.9,-8 H 334.6 V 60 Z"
   id="path10"
   inkscape:connector-curvature="0"
   style="fill:#85a6ba" />
	<path
   d="m 384.2,58 v -0.2 c 0,-12.2 9.3,-17.9 22.6,-17.9 5.7,0 9.7,0.9 13.7,2.3 v -0.9 c 0,-6.6 -4.1,-10.3 -12,-10.3 -4.4,0 -8,0.6 -11,1.6 -0.9,0.3 -1.6,0.4 -2.3,0.4 -3.7,0 -6.6,-2.8 -6.6,-6.5 0,-2.8 1.8,-5.2 4.3,-6.2 5,-1.9 10.5,-2.9 17.9,-2.9 8.7,0 15,2.3 18.9,6.3 4.2,4.2 6.1,10.4 6.1,17.9 v 25.5 c 0,4.3 -3.5,7.6 -7.7,7.6 -4.6,0 -7.6,-3.2 -7.6,-6.6 V 68 c -3.9,4.3 -9.2,7.1 -17,7.1 -10.7,0.1 -19.3,-6 -19.3,-17.1 z m 36.5,-3.7 v -2.8 c -2.7,-1.3 -6.3,-2.1 -10.2,-2.1 -6.8,0 -11,2.7 -11,7.7 v 0.2 c 0,4.3 3.6,6.8 8.7,6.8 7.5,0.1 12.5,-4 12.5,-9.8 z"
   id="path12"
   inkscape:connector-curvature="0"
   style="fill:#85a6ba" />
	<path
   d="m 442.8,68.8 c -1.7,-1 -3,-2.9 -3,-5.4 0,-3.6 2.7,-6.3 6.3,-6.3 1.2,0 2.3,0.3 3.1,0.8 5.3,3.3 10.7,5 15.2,5 4.6,0 6.7,-1.7 6.7,-4.2 v -0.2 c 0,-3.5 -5.4,-4.6 -11.6,-6.5 -7.9,-2.3 -16.7,-6 -16.7,-16.9 V 35 c 0,-11.4 9.2,-17.8 20.5,-17.8 5.9,0 11.9,1.6 17.4,4.3 2.3,1.2 3.8,3.2 3.8,6 0,3.6 -2.8,6.3 -6.4,6.3 -1.2,0 -1.9,-0.2 -2.9,-0.7 -4.5,-2.2 -8.8,-3.6 -12.1,-3.6 -3.9,0 -5.9,1.7 -5.9,3.9 v 0.2 c 0,3.1 5.3,4.6 11.4,6.7 7.9,2.6 17,6.4 17,16.6 V 57 c 0,12.5 -9.3,18.1 -21.5,18.1 -7.1,0.1 -14.5,-1.9 -21.3,-6.3 z"
   id="path14"
   inkscape:connector-curvature="0"
   style="fill:#85a6ba" />
	<path
   d="m 211.1,17.4 c -4.7,0 -8.5,5 -10.8,10.5 v -2.5 c 0,-4.4 -3.6,-8 -8,-8 -4.4,0 -8,3.6 -8,8 v 35.1 c 7.7,1.2 11.7,7.4 13,11.2 0.1,0.4 0.2,0.7 0.2,1.1 1.7,-1.5 2.7,-3.6 2.7,-6 V 51.9 c 0,-11.3 4.5,-17.5 12.6,-19.4 3.2,-0.7 6,-3.2 6,-7.4 0.1,-4.5 -2.8,-7.7 -7.7,-7.7 z"
   id="path16"
   inkscape:connector-curvature="0"
   style="fill:#c2d4e9" />
	<g
   id="g27">
		<radialGradient
   id="SVGID_1_"
   cx="144.3799"
   cy="49.205601"
   r="38.383598"
   gradientUnits="userSpaceOnUse">
			<stop
   offset="0.13"
   style="stop-color:#FFFFFF"
   id="stop18" />
			<stop
   offset="0.4132"
   style="stop-color:#D3DFE7"
   id="stop20" />
			<stop
   offset="0.87"
   style="stop-color:#85A6BB"
   id="stop22" />
		</radialGradient>
		<path
   d="m 174.7,66.7 c -5.3,2.2 -11.6,6.4 -14.4,3.9 -1.9,-1.6 0.6,-5.3 2,-6.7 1.2,-1.3 6.1,-5.6 9.4,-10.9 2.8,-4.6 11,-17.3 -1.3,-28 -12.3,-10.8 -35.8,-9.5 -44.8,-4.8 -9,4.7 -20.7,12.8 -14.3,33.5 4.8,15.3 15.8,20.8 24,25.8 3.6,2.2 14.4,5.9 21.8,10.8 5.8,3.8 13,10 14.5,9 0,0 2,-0.2 1.5,-2.5 -0.5,-2.3 -4.5,-8.5 -8,-12 -5.3,-5.3 -19.3,-14.1 -21.3,-15.8 -11,-9 -17.3,-14.3 -19,-23.8 -0.1,-0.7 -0.2,-1.3 -0.1,-1.9 -0.4,-4.5 1,-11.5 8.8,-17.2 0,0 -5.3,7.2 -5.1,10.3 4.2,-4.2 9.4,-5.3 13.9,-5.7 4.2,-0.3 13.6,0.4 18,3.9 0,0 0,-4.7 -2,-9.4 -0.1,0.1 5.2,6.7 4.9,15 0.1,6.4 -6,15.2 -7.1,16.9 -2.8,4.4 -3.5,9.9 -2.3,13 1.7,4.2 6.1,5.8 10.6,4.5 6.4,-1.9 6.5,-2.8 13.5,-5.7 9.2,-3.9 14.8,4.2 14.8,4.2 0,0 -4,-12.2 -18,-6.4 z"
   id="path25"
   inkscape:connector-curvature="0"
   style="fill:url(#SVGID_1_)" />
	</g>
</g>
</svg>