<?xml version="1.0" encoding="UTF-8" standalone="no"?>
<!-- Created with Inkscape (http://www.inkscape.org/) -->

<svg
   xmlns:dc="http://purl.org/dc/elements/1.1/"
   xmlns:cc="http://creativecommons.org/ns#"
   xmlns:rdf="http://www.w3.org/1999/02/22-rdf-syntax-ns#"
   xmlns:svg="http://www.w3.org/2000/svg"
   xmlns="http://www.w3.org/2000/svg"
   xmlns:sodipodi="http://sodipodi.sourceforge.net/DTD/sodipodi-0.dtd"
   xmlns:inkscape="http://www.inkscape.org/namespaces/inkscape"
   width="59.342255mm"
   height="9.5438995mm"
   viewBox="0 0 59.342255 9.5438995"
   version="1.1"
   id="svg1084"
   sodipodi:docname="tpc_powered.svg"
   inkscape:version="0.92.3 (2405546, 2018-03-11)">
  <defs
     id="defs1078" />
  <sodipodi:namedview
     id="base"
     pagecolor="#ffffff"
     bordercolor="#666666"
     borderopacity="1.0"
     inkscape:pageopacity="0.0"
     inkscape:pageshadow="2"
     inkscape:zoom="3.959798"
     inkscape:cx="41.567575"
     inkscape:cy="-94.527504"
     inkscape:document-units="mm"
     inkscape:current-layer="layer1"
     showgrid="false"
     inkscape:window-width="3840"
     inkscape:window-height="2038"
     inkscape:window-x="0"
     inkscape:window-y="50"
     inkscape:window-maximized="1"
     fit-margin-top="0"
     fit-margin-left="0"
     fit-margin-right="0"
     fit-margin-bottom="0" />
  <metadata
     id="metadata1081">
    <rdf:RDF>
      <cc:Work
         rdf:about="">
        <dc:format>image/svg+xml</dc:format>
        <dc:type
           rdf:resource="http://purl.org/dc/dcmitype/StillImage" />
        <dc:title></dc:title>
      </cc:Work>
    </rdf:RDF>
  </metadata>
  <g
     inkscape:label="Layer 1"
     inkscape:groupmode="layer"
     id="layer1"
     transform="translate(-76.918157,-82.82924)">
    <path
       style="fill:#207bdd;fill-opacity:1;stroke-width:0.19930896"
       d="m 80.887407,82.82924 h 51.403753 c 2.19897,0 3.96925,2.12829 3.96925,4.771951 0,2.64366 -1.77028,4.771949 -3.96925,4.771949 H 80.887407 c -2.198964,0 -3.96925,-2.128289 -3.96925,-4.771949 0,-2.643661 1.770286,-4.771951 3.96925,-4.771951 z"
       id="rect884"
       inkscape:connector-curvature="0" />
    <flowRoot
       xml:space="preserve"
       id="flowRoot1674"
       style="font-style:normal;font-weight:normal;font-size:40px;line-height:1.25;font-family:sans-serif;letter-spacing:0px;word-spacing:0px;fill:#000000;fill-opacity:1;stroke:none"><flowRegion
         id="flowRegion1676"><rect
           id="rect1678"
           width="252.03307"
           height="76.771591"
           x="274.25641"
           y="294.95221" /></flowRegion><flowPara
         id="flowPara1680"></flowPara></flowRoot>    <g
       aria-label="TPC Powered"
       style="font-style:normal;font-weight:normal;font-size:10.58333302px;line-height:1.25;font-family:sans-serif;letter-spacing:0px;word-spacing:0px;fill:#000000;fill-opacity:1;stroke:none;stroke-width:0.26458332"
       id="text1684">
      <path
         d="m 80.421132,85.262501 h 4.740451 v 1.002523 h -1.705322 v 4.141005 h -1.326362 v -4.141005 h -1.708767 z"
         style="font-style:normal;font-variant:normal;font-weight:bold;font-stretch:normal;font-size:7.05555534px;font-family:sans-serif;-inkscape-font-specification:'sans-serif, Bold';font-variant-ligatures:normal;font-variant-caps:normal;font-variant-numeric:normal;font-feature-settings:normal;text-align:start;writing-mode:lr-tb;text-anchor:start;fill:#ffffff;fill-opacity:1;stroke-width:0.26458332"
         id="path1821" />
      <path
         d="m 85.843712,85.262501 h 2.201416 q 0.981852,0 1.505507,0.437527 0.527099,0.434082 0.527099,1.240235 0,0.809597 -0.527099,1.247124 -0.523655,0.434082 -1.505507,0.434082 h -0.875054 v 1.78456 h -1.326362 z m 1.326362,0.961182 v 1.436605 h 0.733805 q 0.385851,0 0.596001,-0.186035 0.210151,-0.189481 0.210151,-0.53399 0,-0.34451 -0.210151,-0.530545 -0.21015,-0.186035 -0.596001,-0.186035 z"
         style="font-style:normal;font-variant:normal;font-weight:bold;font-stretch:normal;font-size:7.05555534px;font-family:sans-serif;-inkscape-font-specification:'sans-serif, Bold';font-variant-ligatures:normal;font-variant-caps:normal;font-variant-numeric:normal;font-feature-settings:normal;text-align:start;writing-mode:lr-tb;text-anchor:start;fill:#ffffff;fill-opacity:1;stroke-width:0.26458332"
         id="path1823" />
      <path
         d="m 95.090348,90.123531 q -0.36518,0.18948 -0.761366,0.285943 -0.396186,0.09646 -0.826823,0.09646 -1.285021,0 -2.036051,-0.71658 -0.751031,-0.720025 -0.751031,-1.949924 0,-1.233344 0.751031,-1.949924 0.75103,-0.720025 2.036051,-0.720025 0.430637,0 0.826823,0.09646 0.396186,0.09646 0.761366,0.285943 v 1.064535 q -0.368625,-0.251492 -0.726915,-0.368625 -0.35829,-0.117134 -0.754476,-0.117134 -0.70969,0 -1.116211,0.454753 -0.406521,0.454753 -0.406521,1.254015 0,0.795817 0.406521,1.250569 0.406521,0.454753 1.116211,0.454753 0.396186,0 0.754476,-0.117133 0.35829,-0.117134 0.726915,-0.368626 z"
         style="font-style:normal;font-variant:normal;font-weight:bold;font-stretch:normal;font-size:7.05555534px;font-family:sans-serif;-inkscape-font-specification:'sans-serif, Bold';font-variant-ligatures:normal;font-variant-caps:normal;font-variant-numeric:normal;font-feature-settings:normal;text-align:start;writing-mode:lr-tb;text-anchor:start;fill:#ffffff;fill-opacity:1;stroke-width:0.26458332"
         id="path1825" />
      <path
         d="m 98.645687,85.262501 h 2.201413 q 0.98185,0 1.50551,0.437527 0.5271,0.434082 0.5271,1.240235 0,0.809597 -0.5271,1.247124 -0.52366,0.434082 -1.50551,0.434082 h -0.875052 v 1.78456 h -1.326361 z m 1.326361,0.961182 v 1.436605 h 0.733802 q 0.38585,0 0.59601,-0.186035 0.21015,-0.189481 0.21015,-0.53399 0,-0.34451 -0.21015,-0.530545 -0.21016,-0.186035 -0.59601,-0.186035 z"
         style="font-style:normal;font-variant:normal;font-weight:bold;font-stretch:normal;font-size:7.05555534px;font-family:sans-serif;-inkscape-font-specification:'sans-serif, Bold';font-variant-ligatures:normal;font-variant-caps:normal;font-variant-numeric:normal;font-feature-settings:normal;text-align:start;writing-mode:lr-tb;text-anchor:start;fill:#ffffff;fill-opacity:1;stroke-width:0.26458332"
         id="path1827" />
      <path
         d="m 105.59444,87.336449 q -0.40996,0 -0.627,0.296278 -0.2136,0.292833 -0.2136,0.847493 0,0.554661 0.2136,0.850939 0.21704,0.292833 0.627,0.292833 0.40308,0 0.61668,-0.292833 0.21359,-0.296278 0.21359,-0.850939 0,-0.55466 -0.21359,-0.847493 -0.2136,-0.296278 -0.61668,-0.296278 z m 0,-0.881945 q 0.99564,0 1.55374,0.537435 0.56155,0.537435 0.56155,1.488281 0,0.950847 -0.56155,1.488282 -0.5581,0.537435 -1.55374,0.537435 -0.99907,0 -1.56407,-0.537435 -0.56155,-0.537435 -0.56155,-1.488282 0,-0.950846 0.56155,-1.488281 0.565,-0.537435 1.56407,-0.537435 z"
         style="font-style:normal;font-variant:normal;font-weight:bold;font-stretch:normal;font-size:7.05555534px;font-family:sans-serif;-inkscape-font-specification:'sans-serif, Bold';font-variant-ligatures:normal;font-variant-caps:normal;font-variant-numeric:normal;font-feature-settings:normal;text-align:start;writing-mode:lr-tb;text-anchor:start;fill:#ffffff;fill-opacity:1;stroke-width:0.26458332"
         id="path1829" />
      <path
         d="m 108.26439,86.547522 h 1.1989 l 0.64767,2.659614 0.65113,-2.659614 h 1.03008 l 0.64768,2.632053 0.65112,-2.632053 h 1.19889 l -1.0163,3.858507 h -1.34703 l -0.65112,-2.652724 -0.64768,2.652724 h -1.34703 z"
         style="font-style:normal;font-variant:normal;font-weight:bold;font-stretch:normal;font-size:7.05555534px;font-family:sans-serif;-inkscape-font-specification:'sans-serif, Bold';font-variant-ligatures:normal;font-variant-caps:normal;font-variant-numeric:normal;font-feature-settings:normal;text-align:start;writing-mode:lr-tb;text-anchor:start;fill:#ffffff;fill-opacity:1;stroke-width:0.26458332"
         id="path1831" />
      <path
         d="m 118.97864,88.46644 v 0.3514 h -2.88355 q 0.0448,0.434082 0.31351,0.651123 0.26872,0.217041 0.75103,0.217041 0.38929,0 0.79582,-0.113688 0.40996,-0.117134 0.8406,-0.3514 v 0.950846 q -0.43753,0.165365 -0.87506,0.248047 -0.43752,0.08613 -0.87505,0.08613 -1.04731,0 -1.62953,-0.530545 -0.57878,-0.53399 -0.57878,-1.495172 0,-0.943956 0.56844,-1.484836 0.57189,-0.54088 1.57097,-0.54088 0.9095,0 1.45383,0.547771 0.54777,0.54777 0.54777,1.464165 z m -1.2678,-0.409966 q 0,-0.3514 -0.2067,-0.564996 -0.20326,-0.217041 -0.53399,-0.217041 -0.35829,0 -0.58222,0.203261 -0.22393,0.199815 -0.27906,0.578776 z"
         style="font-style:normal;font-variant:normal;font-weight:bold;font-stretch:normal;font-size:7.05555534px;font-family:sans-serif;-inkscape-font-specification:'sans-serif, Bold';font-variant-ligatures:normal;font-variant-caps:normal;font-variant-numeric:normal;font-feature-settings:normal;text-align:start;writing-mode:lr-tb;text-anchor:start;fill:#ffffff;fill-opacity:1;stroke-width:0.26458332"
         id="path1833" />
      <path
         d="m 122.77513,87.598276 q -0.16192,-0.07579 -0.32384,-0.110243 -0.15847,-0.0379 -0.32039,-0.0379 -0.47542,0 -0.7338,0.306613 -0.25494,0.303169 -0.25494,0.87161 v 1.777669 h -1.23335 v -3.858507 h 1.23335 v 0.633897 q 0.23771,-0.37896 0.54432,-0.551215 0.31006,-0.1757 0.7407,-0.1757 0.062,0 0.13436,0.0069 0.0723,0.0034 0.21015,0.02067 z"
         style="font-style:normal;font-variant:normal;font-weight:bold;font-stretch:normal;font-size:7.05555534px;font-family:sans-serif;-inkscape-font-specification:'sans-serif, Bold';font-variant-ligatures:normal;font-variant-caps:normal;font-variant-numeric:normal;font-feature-settings:normal;text-align:start;writing-mode:lr-tb;text-anchor:start;fill:#ffffff;fill-opacity:1;stroke-width:0.26458332"
         id="path1835" />
      <path
         d="m 127.24687,88.46644 v 0.3514 h -2.88355 q 0.0448,0.434082 0.31351,0.651123 0.26872,0.217041 0.75103,0.217041 0.38929,0 0.79582,-0.113688 0.40996,-0.117134 0.8406,-0.3514 v 0.950846 q -0.43753,0.165365 -0.87506,0.248047 -0.43752,0.08613 -0.87505,0.08613 -1.04731,0 -1.62953,-0.530545 -0.57878,-0.53399 -0.57878,-1.495172 0,-0.943956 0.56845,-1.484836 0.57188,-0.54088 1.57096,-0.54088 0.9095,0 1.45383,0.547771 0.54777,0.54777 0.54777,1.464165 z m -1.2678,-0.409966 q 0,-0.3514 -0.2067,-0.564996 -0.20326,-0.217041 -0.53399,-0.217041 -0.35829,0 -0.58222,0.203261 -0.22393,0.199815 -0.27906,0.578776 z"
         style="font-style:normal;font-variant:normal;font-weight:bold;font-stretch:normal;font-size:7.05555534px;font-family:sans-serif;-inkscape-font-specification:'sans-serif, Bold';font-variant-ligatures:normal;font-variant-caps:normal;font-variant-numeric:normal;font-feature-settings:normal;text-align:start;writing-mode:lr-tb;text-anchor:start;fill:#ffffff;fill-opacity:1;stroke-width:0.26458332"
         id="path1837" />
      <path
         d="M 130.80221,87.112518 V 85.04546 h 1.24023 v 5.360569 h -1.24023 v -0.558106 q -0.25494,0.341065 -0.56155,0.499539 -0.30662,0.158475 -0.70969,0.158475 -0.71314,0 -1.17134,-0.564996 -0.45819,-0.568441 -0.45819,-1.460721 0,-0.892279 0.45819,-1.457275 0.4582,-0.568441 1.17134,-0.568441 0.39963,0 0.70624,0.16192 0.31006,0.158474 0.565,0.496094 z m -0.81305,2.497694 q 0.39619,0 0.6029,-0.289388 0.21015,-0.289388 0.21015,-0.840604 0,-0.551215 -0.21015,-0.840603 -0.20671,-0.289388 -0.6029,-0.289388 -0.39274,0 -0.60289,0.289388 -0.2067,0.289388 -0.2067,0.840603 0,0.551216 0.2067,0.840604 0.21015,0.289388 0.60289,0.289388 z"
         style="font-style:normal;font-variant:normal;font-weight:bold;font-stretch:normal;font-size:7.05555534px;font-family:sans-serif;-inkscape-font-specification:'sans-serif, Bold';font-variant-ligatures:normal;font-variant-caps:normal;font-variant-numeric:normal;font-feature-settings:normal;text-align:start;writing-mode:lr-tb;text-anchor:start;fill:#ffffff;fill-opacity:1;stroke-width:0.26458332"
         id="path1839" />
    </g>
  </g>
</svg>
