<?xml version="1.0" encoding="UTF-8"?><svg id="Layer_1" xmlns="http://www.w3.org/2000/svg" viewBox="0 0 1222.79 1107.68"><defs><style>.cls-1{fill:#fff;}.cls-2{stroke-linejoin:round;}.cls-2,.cls-3,.cls-4,.cls-5,.cls-6,.cls-7{stroke:#fff;stroke-linecap:round;}.cls-2,.cls-5{stroke-width:19.68px;}.cls-2,.cls-5,.cls-6{fill:none;}.cls-3{fill:#337ab6;}.cls-3,.cls-4,.cls-5,.cls-6,.cls-7{stroke-miterlimit:10;}.cls-3,.cls-4,.cls-6,.cls-7{stroke-width:14.06px;}.cls-4{fill:#83a5b9;}.cls-7{fill:#221f1f;}</style></defs><path class="cls-2" d="M367.86,922.67c38.35-40.19,69.28-102.05,49.6-158.28-8.44-25.31-25.31-44.99-36.55-70.3-67.48-115.28-146.21-230.57-134.97-368.34,5.62-56.24,19.68-106.85,50.61-157.46C372.47,47.38,513.05,2.39,645.21,10.83c0,0,131.41,10.62,219.32,89.98,9.33,8.42,18,17.46,18,17.46,0,0,3.73,3.89,7.3,7.84,49.58,54.95,64.67,106.85,64.67,106.85,14.06,44.99,5.62,89.98,16.87,134.97,14.06,64.67,59.05,112.47,95.6,163.08,5.62,25.31-14.06,42.18-36.55,50.61-8.44,2.81-22.49,8.44-22.49,22.49,2.81,11.25,8.43,19.68,14.06,30.93,14.06,25.31-19.68,25.31-30.93,39.36v8.44c14.06,11.25,28.12,25.31,22.49,42.18-11.25,19.68-8.44,42.18-11.25,64.67-2.81,25.31-8.44,53.42-33.74,61.86-47.8,11.25-95.6-2.81-143.4-8.44-7.39,1.08-14.78,2.17-22.17,3.25"/><g><path class="cls-1" d="M113.7,1061.02c0,3.19-1.04,5.79-3.12,7.81s-4.47,3.03-7.16,3.03c-2.2,0-4.2-.67-5.97-2.02-1.78-1.35-3.15-3.18-4.13-5.51l-9.55-22.23H29.02l-9.55,22.41c-.86,2.33-2.18,4.13-3.95,5.42-1.78,1.29-3.71,1.93-5.79,1.93-3.19,0-5.6-.86-7.26-2.57s-2.48-4.04-2.48-6.98c0-1.1,.18-2.26,.55-3.49l45.74-109.84c.98-2.45,2.45-4.35,4.41-5.69,1.96-1.35,4.16-1.9,6.61-1.65,2.2,0,4.25,.64,6.15,1.93,1.9,1.29,3.27,3.09,4.13,5.42l45.19,107.64c.61,1.59,.92,3.06,.92,4.41Zm-75.68-40.04h36.74l-18.55-42.98-18.19,42.98Z"/><path class="cls-1" d="M227.04,957.98c0,2.57-.92,5.08-2.76,7.53-1.96,2.57-4.47,3.86-7.53,3.86-2.08,0-4.16-.55-6.25-1.65-6-2.82-12.49-4.22-19.47-4.22-8.57,0-16.04,1.81-22.41,5.42-6.37,3.61-11.27,8.7-14.69,15.25-3.43,6.55-5.14,14.05-5.14,22.5,0,14.45,3.89,25.41,11.66,32.88,7.78,7.47,17.97,11.2,30.58,11.2,7.47,0,13.96-1.41,19.47-4.22,2.2-.98,4.16-1.47,5.88-1.47,3.18,0,5.88,1.35,8.08,4.04,1.84,2.33,2.76,4.84,2.76,7.53,0,1.96-.49,3.74-1.47,5.33-.98,1.59-2.39,2.82-4.22,3.67-9.55,4.78-19.72,7.16-30.49,7.16-12,0-23.02-2.54-33.06-7.62-10.04-5.08-18.06-12.58-24.06-22.5-6-9.92-9-21.92-9-36,0-12.49,2.85-23.7,8.54-33.61,5.69-9.92,13.56-17.66,23.6-23.24,10.04-5.57,21.37-8.36,33.98-8.36,10.9,0,21,2.39,30.31,7.16,3.79,1.96,5.69,5.08,5.69,9.37Z"/><path class="cls-1" d="M349.74,1055.42c.49,1.41,.73,2.73,.73,3.95,0,3.31-1.26,6.06-3.77,8.27-2.51,2.2-5.42,3.31-8.73,3.31-1.59,0-3.12-.37-4.59-1.1s-2.7-1.77-3.67-3.12l-39.86-52.53-17.45,16.72v28.84c0,3.31-1.07,6-3.21,8.08-2.14,2.08-4.93,3.12-8.36,3.12s-6.03-1.07-8.17-3.21c-2.14-2.14-3.21-4.8-3.21-7.99v-106.17c0-3.18,1.1-5.85,3.31-7.99,2.2-2.14,5.02-3.21,8.45-3.21s6,1.04,8.08,3.12c2.08,2.08,3.12,4.78,3.12,8.08v49.96l58.78-57.86c2.82-2.82,5.81-4.22,9-4.22,2.82,0,5.2,1.17,7.16,3.49,1.96,2.33,2.94,4.78,2.94,7.35s-1.1,4.96-3.31,7.16l-40.04,38.21,40.96,54.19c.73,.98,1.35,2.18,1.84,3.58Z"/><path class="cls-1" d="M447.83,981.95c4.78,7.41,7.16,17.67,7.16,30.77v47.02c0,3.19-1.04,5.85-3.12,7.99-2.08,2.14-4.72,3.21-7.9,3.21s-5.82-1.07-7.9-3.21c-2.08-2.14-3.12-4.8-3.12-7.99v-47.02c0-6.73-1.41-12.03-4.22-15.89-2.82-3.86-7.65-5.79-14.51-5.79s-12.67,2.05-16.72,6.15c-4.04,4.1-6.06,9.28-6.06,15.52v47.02c0,3.19-1.04,5.85-3.12,7.99-2.08,2.14-4.72,3.21-7.9,3.21s-5.82-1.07-7.9-3.21c-2.08-2.14-3.12-4.8-3.12-7.99v-75.86c0-3.18,1.04-5.85,3.12-7.99,2.08-2.14,4.71-3.21,7.9-3.21s5.81,1.07,7.9,3.21c2.08,2.14,3.12,4.81,3.12,7.99v3.12c3.31-4.41,7.62-8.2,12.95-11.39,5.33-3.18,11.17-4.78,17.54-4.78,12.49,0,21.12,3.71,25.9,11.11Z"/><path class="cls-1" d="M569.61,1048.26c-4.41,7.78-10.44,13.81-18.09,18.09-7.65,4.29-16.07,6.43-25.26,6.43s-17.76-2.14-25.35-6.43c-7.59-4.28-13.59-10.31-18-18.09-4.41-7.78-6.61-16.56-6.61-26.36s2.2-18.58,6.61-26.36c4.41-7.78,10.41-13.84,18-18.19,7.59-4.35,16.04-6.52,25.35-6.52s17.6,2.18,25.26,6.52c7.65,4.35,13.68,10.41,18.09,18.19,4.41,7.78,6.61,16.56,6.61,26.36s-2.2,18.58-6.61,26.36Zm-19.2-42.43c-2.51-4.71-5.88-8.36-10.1-10.93s-8.91-3.86-14.05-3.86-9.83,1.29-14.05,3.86-7.59,6.22-10.1,10.93c-2.51,4.72-3.77,10.07-3.77,16.07s1.25,11.33,3.77,15.98c2.51,4.66,5.88,8.27,10.1,10.84s8.91,3.86,14.05,3.86,9.83-1.29,14.05-3.86,7.59-6.18,10.1-10.84c2.51-4.65,3.77-9.98,3.77-15.98s-1.26-11.36-3.77-16.07Z"/><path class="cls-1" d="M718.12,975.88c2.02,2.14,3.03,4.87,3.03,8.17,0,1.1-.25,2.51-.73,4.22l-28.1,75.68c-.73,2.2-2.05,3.95-3.95,5.24-1.9,1.29-3.95,1.93-6.15,1.93l-1.47-.18c-4.16-.24-7.29-2.57-9.37-6.98l-15.61-45.19-14.88,45.19c-2.08,4.41-5.2,6.74-9.37,6.98l-1.47,.18c-2.2,0-4.25-.64-6.15-1.93s-3.21-3.03-3.95-5.24l-28.1-75.68c-.49-1.35-.73-2.76-.73-4.22,0-3.06,1.01-5.72,3.03-7.99,2.02-2.26,4.68-3.4,7.99-3.4,2.45,0,4.56,.58,6.34,1.75,1.77,1.17,3.03,2.91,3.77,5.24l19.84,53.82,14.51-39.31c1.96-4.53,5.33-6.8,10.1-6.8,2.57,0,4.56,.55,5.97,1.65,1.41,1.1,2.6,2.82,3.58,5.14l14.14,38.39,19.65-52.9c.73-2.32,2.02-4.07,3.86-5.24,1.84-1.16,4.1-1.75,6.8-1.75,2.94,0,5.42,1.07,7.44,3.21Z"/><path class="cls-1" d="M762.2,1067.73c-2.14,2.14-4.81,3.21-7.99,3.21s-5.63-1.07-7.71-3.21c-2.08-2.14-3.12-4.8-3.12-7.99v-113.52c0-3.18,1.07-5.85,3.21-7.99s4.8-3.21,7.99-3.21,5.63,1.07,7.71,3.21c2.08,2.14,3.12,4.81,3.12,7.99v113.52c0,3.19-1.07,5.85-3.21,7.99Z"/><path class="cls-1" d="M876.91,1026.67c-2.2,1.84-4.78,2.76-7.71,2.76h-60.62c1.47,7.23,4.84,12.89,10.1,16.99,5.27,4.1,11.2,6.15,17.82,6.15,5.02,0,8.94-.46,11.76-1.38,2.82-.92,5.05-1.9,6.7-2.94,1.65-1.04,2.78-1.75,3.4-2.11,2.2-1.1,4.28-1.65,6.25-1.65,2.57,0,4.78,.92,6.61,2.76s2.76,3.98,2.76,6.43c0,3.31-1.72,6.31-5.14,9-3.43,2.82-8.02,5.21-13.78,7.16-5.76,1.96-11.57,2.94-17.45,2.94-10.29,0-19.26-2.14-26.91-6.43-7.65-4.28-13.56-10.19-17.73-17.73-4.16-7.53-6.25-16.01-6.25-25.44,0-10.53,2.2-19.77,6.61-27.74,4.41-7.96,10.22-14.05,17.45-18.28,7.22-4.22,14.94-6.34,23.14-6.34s15.71,2.2,22.87,6.61c7.16,4.41,12.89,10.35,17.17,17.82,4.28,7.47,6.43,15.55,6.43,24.25-.12,2.94-1.29,5.33-3.49,7.16Zm-68.15-15.61h48.12v-1.29c-.49-5.14-3-9.55-7.53-13.23-4.53-3.67-9.68-5.51-15.43-5.51-14.21,0-22.59,6.68-25.16,20.02Z"/><path class="cls-1" d="M989.14,938.14c2.08,2.08,3.12,4.78,3.12,8.08v113.52c0,3.19-1.04,5.85-3.12,7.99-2.08,2.14-4.72,3.21-7.9,3.21s-5.79-1.04-7.81-3.12c-2.02-2.08-3.09-4.71-3.21-7.9-3.06,3.55-7.2,6.58-12.4,9.09-5.21,2.51-10.69,3.77-16.44,3.77-8.45,0-16.1-2.17-22.96-6.52-6.86-4.35-12.28-10.38-16.26-18.09-3.98-7.71-5.97-16.47-5.97-26.27s1.96-18.58,5.88-26.36c3.92-7.78,9.28-13.84,16.07-18.19,6.8-4.35,14.3-6.52,22.5-6.52,5.88,0,11.39,1.07,16.53,3.21,5.14,2.14,9.49,4.87,13.04,8.17v-36c0-3.18,1.04-5.85,3.12-7.99,2.08-2.14,4.71-3.21,7.9-3.21s5.81,1.04,7.9,3.12Zm-25.53,105.71c5.02-5.81,7.53-13.13,7.53-21.95s-2.51-16.16-7.53-22.04c-5.02-5.88-11.51-8.82-19.47-8.82s-14.27,2.94-19.29,8.82c-5.02,5.88-7.53,13.23-7.53,22.04s2.48,16.14,7.44,21.95c4.96,5.82,11.42,8.73,19.38,8.73s14.45-2.91,19.47-8.73Z"/><path class="cls-1" d="M1108.35,973.96c2.08,2.08,3.12,4.78,3.12,8.08v81.74c0,14.94-4.62,25.99-13.87,33.16-9.25,7.16-20.97,10.75-35.18,10.75-3.67,0-8.73-.61-15.15-1.84-6.43-1.23-10.99-2.45-13.68-3.67-6-2.57-9-6.13-9-10.65,0-.86,.18-1.84,.55-2.94,.73-2.7,1.99-4.75,3.77-6.15,1.77-1.41,3.7-2.11,5.79-2.11,1.22,0,2.39,.18,3.49,.55,.49,.12,3.52,1.25,9.09,3.4,5.57,2.14,10.62,3.21,15.15,3.21,9.06,0,15.83-1.81,20.3-5.42,4.47-3.61,6.7-8.73,6.7-15.34v-8.82c-2.7,3.8-6.77,7.23-12.22,10.29-5.45,3.06-11.3,4.59-17.54,4.59-8.57,0-16.38-2.17-23.42-6.52-7.04-4.35-12.58-10.38-16.62-18.09s-6.06-16.47-6.06-26.27,1.99-18.58,5.97-26.36c3.98-7.78,9.43-13.84,16.35-18.19,6.92-4.35,14.6-6.52,23.05-6.52,6.25,0,12.06,1.29,17.45,3.86,5.39,2.57,9.74,5.69,13.04,9.37v-2.02c0-3.18,1.04-5.85,3.12-7.99,2.08-2.14,4.71-3.21,7.9-3.21s5.81,1.04,7.9,3.12Zm-25.81,69.89c5.2-5.81,7.81-13.13,7.81-21.95s-2.6-16.16-7.81-22.04c-5.21-5.88-11.91-8.82-20.11-8.82s-14.88,2.94-20.02,8.82c-5.14,5.88-7.71,13.23-7.71,22.04s2.57,16.14,7.71,21.95c5.14,5.82,11.81,8.73,20.02,8.73s14.91-2.91,20.11-8.73Z"/><path class="cls-1" d="M1219.3,1026.67c-2.2,1.84-4.78,2.76-7.71,2.76h-60.62c1.47,7.23,4.84,12.89,10.1,16.99,5.27,4.1,11.2,6.15,17.82,6.15,5.02,0,8.94-.46,11.76-1.38,2.82-.92,5.05-1.9,6.7-2.94,1.65-1.04,2.78-1.75,3.4-2.11,2.2-1.1,4.28-1.65,6.25-1.65,2.57,0,4.78,.92,6.61,2.76s2.76,3.98,2.76,6.43c0,3.31-1.72,6.31-5.14,9-3.43,2.82-8.02,5.21-13.78,7.16-5.76,1.96-11.57,2.94-17.45,2.94-10.29,0-19.26-2.14-26.91-6.43-7.65-4.28-13.56-10.19-17.73-17.73-4.16-7.53-6.25-16.01-6.25-25.44,0-10.53,2.2-19.77,6.61-27.74,4.41-7.96,10.22-14.05,17.45-18.28,7.22-4.22,14.94-6.34,23.14-6.34s15.71,2.2,22.87,6.61c7.16,4.41,12.89,10.35,17.17,17.82,4.28,7.47,6.43,15.55,6.43,24.25-.12,2.94-1.29,5.33-3.49,7.16Zm-68.15-15.61h48.12v-1.29c-.49-5.14-3-9.55-7.53-13.23-4.53-3.67-9.68-5.51-15.43-5.51-14.21,0-22.59,6.68-25.16,20.02Z"/></g><path class="cls-1" d="M808.98,645.69c0,9.17,.08,15.1-.01,21.02-.28,18.59-5.83,24.52-24.46,24.6-46.39,.21-92.79,.07-139.18,.08-38.33,0-76.65,.08-114.98-.03-22.51-.06-27.66-5.23-27.67-27.62-.04-110.91-.02-221.83-.01-332.74,0-25.43,4.49-29.96,29.69-30.37,3.95-.06,7.9-.44,11.64-.66,5.57-23.46,6.65-24.33,30.32-24.33,61.52,0,123.05-.31,184.57,.4,7.47,.09,16.51,3.95,22.02,9.08,21.39,19.92,42.05,40.67,62.03,62.01,4.83,5.16,8.47,13.7,8.54,20.72,.62,70.07,.64,140.15,.1,210.23-.09,11.34,3.15,18.7,12.34,25.26,13.93,9.94,27.1,21,40.23,32.01,15.32,12.85,15.16,23.87,.05,42.79-13.24,16.58-24.41,18.72-39.79,7.01-13.23-10.08-25.96-20.82-39.21-30.88-4.03-3.06-9.02-4.84-16.2-8.57Zm-10.44-11.59c2.21-17.88-14.1-20.81-22.11-29.93-6.01-6.83-11.37-6.33-19.39-1.5-41.89,25.24-95.26,16.64-126.52-19.47-31.95-36.9-33.22-90.11-3.06-128.02,30.3-38.09,82.49-49.09,125.39-26.44,42.87,22.63,63.04,72.94,47.18,120.13-3.02,8.98-1.62,13.92,5.75,18.81,5.44,3.6,9.87,8.85,15.51,12,4.84,2.7,10.77,3.47,16.67,5.22v-219.6c-16.48,.95-31.53,1.76-46.58,2.71-21.35,1.35-29.68-6.26-29.82-27.68-.12-17.41-.02-34.83-.02-52.22-4.28-.56-6.23-1.03-8.19-1.03-60.5-.06-121,.2-181.5-.3-12.75-.11-13.39,6.48-13.38,16.16,.17,105.34,.29,210.69-.14,316.03-.05,12.67,4.02,16.31,16.45,16.22,70.58-.5,141.17-.23,211.75-.28,3.89,0,7.78-.51,12.01-.81Zm-252.46-318.89c-29.56-4.86-30.41-4.19-30.41,22.57,0,107.86,.26,215.71-.32,323.57-.08,14.26,4.37,17.93,18.07,17.84,81.67-.54,163.34-.64,245.01,.07,15.23,.13,20.01-5.29,18.05-19.23-.54-3.82-.94-7.66-1.51-12.3-6.62,0-12.13,0-17.64,0-67.05,0-134.1,.01-201.15,0-25.98,0-30.09-4.03-30.1-29.43-.02-47.88,0-95.76,0-143.64,0-52.89,0-105.77,0-159.44Zm246.79,202.15c.48-48.22-38.58-87.4-87.3-87.57-47.22-.17-86.64,38.78-87.38,86.34-.74,47.59,39.24,88.41,86.81,88.61,48.1,.21,87.4-38.87,87.88-87.38Zm18.62,109.14c21.39,17.12,41.98,34.48,63.56,50.5,10.66,7.9,15.84-2.88,21.47-9.58,5.5-6.55,10.16-13.55,1.36-20.7-20.49-16.65-41.24-32.98-62.44-49.88-8.32,10.31-15.53,19.24-23.95,29.67Zm13.73-273.34c-17.12-17.09-34.06-33.99-51.09-50.99,0,13.56-.7,28.51,.5,43.31,.3,3.66,6.68,9.6,10.39,9.7,13.83,.38,27.71-1.24,40.2-2.03Zm-5.82,241.72c-9.98-7.97-19.21-15.35-28.88-23.07-4.9,6.12-8.86,11.08-13.3,16.62,10.01,8.13,18.87,15.32,28.71,23.31,4.71-5.9,8.69-10.88,13.47-16.85Z"/><path class="cls-1" d="M666.39,360.63c-19.61,0-39.22,.32-58.81-.27-4.1-.12-8.1-3.63-12.14-5.57,3.75-2.32,7.49-6.6,11.27-6.65,39.71-.49,79.43-.48,119.14,0,3.77,.05,7.5,4.25,11.25,6.53-3.96,1.99-7.87,5.57-11.89,5.7-19.59,.6-39.2,.27-58.81,.27Z"/><path class="cls-1" d="M666.34,326.29c-20.14,0-40.28,.3-60.4-.28-3.51-.1-6.92-3.84-10.38-5.9,3.46-2.06,6.91-5.89,10.39-5.93,40.27-.42,80.55-.42,120.82,0,3.43,.04,6.81,3.86,10.22,5.93-3.41,2.06-6.78,5.79-10.24,5.89-20.12,.57-40.27,.28-60.4,.28Z"/><path class="cls-1" d="M667.9,382.15c19.63,0,39.26-.3,58.87,.29,3.44,.1,6.76,3.96,10.14,6.08-3.38,2.06-6.75,5.86-10.15,5.9-40.26,.42-80.52,.43-120.77,.01-3.46-.04-6.88-3.83-10.32-5.88,3.44-2.13,6.84-6.01,10.34-6.11,20.62-.58,41.26-.29,61.89-.29Z"/><path class="cls-1" d="M770.32,517.16c-.06,36.27-29.12,65.04-65.42,64.76-35.02-.27-64.34-29.85-64.25-64.82,.09-35.12,29.2-64.42,64.33-64.75,36.28-.33,65.4,28.54,65.34,64.8Zm-64.36-52.1c-28.28-.28-52.05,22.96-52.65,51.47-.59,27.88,23.48,52.64,51.37,52.86,29.45,.23,53.16-23.15,53.13-52.38-.03-28.68-22.97-51.66-51.85-51.95Z"/><line class="cls-4" x1="709.11" y1="275.56" x2="709.11" y2="148.58"/><circle class="cls-6" cx="709.11" cy="125.75" r="19.6"/><line class="cls-4" x1="653.05" y1="275.35" x2="653.05" y2="202.32"/><circle class="cls-6" cx="649.49" cy="178.97" r="19.6"/><line class="cls-4" x1="502.66" y1="412.06" x2="425.58" y2="412.06"/><circle class="cls-6" cx="405.98" cy="411.32" r="19.6"/><line class="cls-7" x1="502.66" y1="354.38" x2="393.82" y2="354.38"/><circle class="cls-6" cx="374.22" cy="350.12" r="19.6"/><line class="cls-4" x1="507.19" y1="457.51" x2="449.22" y2="515.48"/><line class="cls-4" x1="449.22" y1="518.58" x2="449.22" y2="580.23"/><circle class="cls-6" cx="449.22" cy="604.86" r="19.6"/><line class="cls-4" x1="847.12" y1="452.36" x2="883.19" y2="408.67"/><line class="cls-4" x1="883.19" y1="406.56" x2="883.19" y2="324.37"/><circle class="cls-6" cx="883.19" cy="302.83" r="19.6"/><line class="cls-3" x1="594.3" y1="277.03" x2="594.3" y2="233.23"/><line class="cls-4" x1="592.78" y1="230.44" x2="534.66" y2="172.32"/><circle class="cls-6" cx="520.8" cy="158.46" r="19.6"/><line class="cls-6" x1="687.79" y1="527.51" x2="700.12" y2="539.84"/><line class="cls-6" x1="702" y1="541.41" x2="728.58" y2="505.59"/><path class="cls-5" d="M759.06,908.37c5.81-24.59,18.83-50.12,42.73-61.32"/></svg>